# xmcd
#
# Track frame offsets:
#	150
#	18693
#	36530
#	56508
#	75139
#	91874
#	109919
#	126600
#	142331
#	162004
#	182221
#	206566
#
# Disc length: 2960 seconds
#
# Revision: 0
# Processed by: cddbd v1.5.1PL2 Copyright (c) Steve Scherf et al.
# Submitted via: audiograbber 1.82.02
#
DISCID=aa0b8e0c
DTITLE=Lisa Kindred - Steppin' Up In Class
DYEAR=2002
DGENRE=Blues
TTITLE0=Steppin' Up In Class
TTITLE1=Why People Like That
TTITLE2=Twenty Four Hour Blues
TTITLE3=Ain't No Big Deal On You
TTITLE4=I Feel Like Laying Down
TTITLE5=Aw Shucks Hush Your Mouth
TTITLE6=Tell Me
TTITLE7=You Got To Move Pt. 1
TTITLE8=New Rivierta
TTITLE9=I Woke Up Screaming
TTITLE10=Cut Off My Right Arm
TTITLE11=Last Thing On My Mind
EXTD=
EXTT0=
EXTT1=
EXTT2=
EXTT3=
EXTT4=
EXTT5=
EXTT6=
EXTT7=
EXTT8=
EXTT9=
EXTT10=
EXTT11=
PLAYORDER=
